<svg width="220" height="40" viewBox="0 0 220 40" fill="none" xmlns="http://www.w3.org/2000/svg">
<g clip-path="url(#clip0_131_256)">
<path d="M36.0586 18.642L38.7341 23.4568L32.2886 34.6914L34.4168 39.1976H50.2267V20.926L43.2947 6.48151L36.0586 18.642Z" fill="#64691F"/>
<path d="M38.7339 23.4568L36.0584 18.642L43.2945 6.48148L41.4702 2.71605L36.9097 0L27.4846 12.3457L25.3564 12.1605L22.8633 15.0617L32.2884 34.6914L38.7339 23.4568Z" fill="#C0BC73"/>
<path d="M22.8637 15.0617L21.9516 13.1481L16.1749 22.8395L18.364 26.6667L11.1279 39.1975H34.417L32.2888 34.6913L22.8637 15.0617Z" fill="#64691F"/>
<path d="M18.3637 26.6667L16.1747 22.8395L21.9514 13.1482L20.492 10.1852L16.9044 8.02472L9.4251 17.8395L7.66169 17.6543L0 26.7284V39.1976H11.1277L18.3637 26.6667Z" fill="#C0BC73"/>
<path d="M84.2788 22.5309L76.4955 36.358H73.1511L65.4894 22.963V39.3827H58.4966V8.82715H64.6989L74.9753 26.9753L85.0693 8.82715H91.2716L91.3324 39.4444H84.3396L84.2788 22.5309Z" fill="#F2A848"/>
<path d="M102.339 37.963C99.9064 36.6049 98.0214 34.6914 96.6836 32.284C95.3459 29.8765 94.6162 27.1605 94.6162 24.1358C94.6162 21.1111 95.2851 18.3951 96.6836 15.9877C98.0214 13.5802 99.9064 11.6667 102.339 10.3086C104.771 8.95062 107.446 8.27161 110.487 8.27161C113.466 8.27161 116.203 8.95062 118.574 10.3086C121.006 11.6667 122.891 13.5802 124.229 15.9877C125.567 18.3951 126.297 21.1111 126.297 24.1358C126.297 27.1605 125.628 29.8765 124.229 32.284C122.831 34.6914 121.006 36.6049 118.574 37.963C116.142 39.321 113.466 40 110.487 40C107.446 40 104.71 39.321 102.339 37.963ZM114.683 32.0988C115.959 31.358 116.932 30.2469 117.662 28.8889C118.392 27.5309 118.757 25.9259 118.757 24.1358C118.757 22.3457 118.392 20.8025 117.662 19.3827C116.932 18.0247 115.959 16.9136 114.683 16.1728C113.406 15.4321 112.007 15.0617 110.487 15.0617C108.906 15.0617 107.507 15.4321 106.23 16.1728C104.953 16.9136 103.98 18.0247 103.312 19.3827C102.582 20.7407 102.278 22.3457 102.278 24.1358C102.278 25.9259 102.643 27.4691 103.312 28.8889C104.041 30.2469 105.014 31.358 106.23 32.0988C107.507 32.8395 108.906 33.2099 110.487 33.2099C112.007 33.2099 113.406 32.8395 114.683 32.0988Z" fill="#F2A848"/>
<path d="M151.349 10.679C153.721 11.9136 155.606 13.7037 156.943 16.0494C158.281 18.395 158.95 21.0494 158.95 24.1358C158.95 27.2222 158.281 29.8765 156.943 32.2222C155.606 34.5679 153.721 36.2963 151.349 37.5926C148.978 38.8271 146.181 39.4444 143.079 39.4444H129.763V8.82715H143.079C146.181 8.82715 148.978 9.44443 151.349 10.679ZM149.039 30.5555C150.62 29.0123 151.41 26.8518 151.41 24.1358C151.41 21.4197 150.62 19.2592 149.039 17.716C147.458 16.1728 145.329 15.3704 142.715 15.3704H137.303V32.963H142.715C145.329 32.9012 147.458 32.1605 149.039 30.5555Z" fill="#F2A848"/>
<path d="M167.828 33.2716L165.517 39.4444H157.855L170.564 8.82715H177.983L190.691 39.4444H182.847L180.537 33.2716H167.828ZM174.152 16.6049L170.199 27.2222H178.104L174.152 16.6049Z" fill="#F2A848"/>
<path d="M199.448 31.7284V39.4444H191.968V8.82715H199.448V22.0988L211.122 8.82715H219.392L207.656 22.4074L220 39.4444H211.305L202.731 27.963L199.448 31.7284Z" fill="#F2A848"/>
</g>
<defs>
<clipPath id="clip0_131_256">
<rect width="220" height="40" fill="white"/>
</clipPath>
</defs>
</svg>
